<svg xmlns="http://www.w3.org/2000/svg" width="21.999" height="22"><path d="M 4.1346553,19.971658 C 3.0034546,20.083406 1.6822167,19.792015 1.247757,18.592326 c -0.1272983,-0.898163 -0.35837397,-2.23506 0.032379,-2.929551 6.0403828,-0.07538 12.0825741,-0.03174 18.1236251,-0.02721 0.689099,0.03578 1.852308,-0.271209 1.496489,0.841507 -0.02462,0.993794 0.170788,2.211735 -0.718712,2.914578 -0.41299,0.33344 -0.899633,0.648779 -1.45219,0.565132 -4.864279,0.06392 -9.7307764,0.05224 -14.5946927,0.01488 z m -0.92543,-5.50836 c -0.9033808,-0.0086 -1.9793195,0.101311 -2.60770996,-0.7001 -0.96106795,-0.940931 -0.70618539,-2.68122 0.45039196,-3.34519 0.918479,-0.5015504 2.0354226,-0.233878 3.0421031,-0.321733 5.3127922,-0.0061 10.6271076,-0.06039 15.9389476,0.04337 1.601025,0.03133 2.591812,2.21146 1.525431,3.43553 -0.423946,0.533526 -1.069292,0.973895 -1.774404,0.871955 -5.524373,0.06342 -11.0509027,0.05276 -16.5747597,0.01617 z m -1.6335,-5.49902 C 0.66441591,8.9362326 1.2697691,7.6164905 1.1185821,6.9918584 1.1378795,6.3949253 1.0699935,5.7839807 1.3208659,5.2231752 1.9851349,2.900723 4.2958541,1.1842571 6.7211024,1.2839436 c 3.1599257,-0.055164 6.3226206,-0.035108 9.4816026,0.052234 2.293836,0.2994297 4.168193,2.2020234 4.641694,4.4355925 0.04716,1.0008196 0.0607,2.0161876 0.03231,3.019976 -0.762518,0.3676118 -1.886047,0.078632 -2.78143,0.1793624 -5.506457,0.00519 -11.0133146,0.016281 -16.5195547,-0.00683 z m 4.43565,-1.6967001 C 7.3050137,6.8586318 5.9962857,4.9052668 5.12845,6.0034627 4.5924263,6.5751534 5.303341,7.5352765 6.0113753,7.2675779 z m 5.4576597,-0.11246 c 1.186827,-0.9077268 -0.970873,-2.2736248 -1.266559,-0.792171 -0.1326,0.6738328 0.707746,1.232014 1.266559,0.792171 z m 5.137,0.0563 c 1.368325,-0.7502771 -0.732056,-2.4099925 -1.14988,-0.9001868 -0.170408,0.6672411 0.544427,1.2268413 1.14988,0.9001868 z M 8.7661453,4.5128579 C 10.056133,4.1068063 8.7581776,2.1540539 7.887428,3.2446848 7.327474,3.8201984 8.0599509,4.7670226 8.7661453,4.5128579 z m 4.7519497,-0.0326 c 1.405518,-0.6706927 -0.560028,-2.4270242 -1.081863,-0.9806276 -0.246401,0.6021702 0.499721,1.2940472 1.081863,0.9806276 z" fill-rule="evenodd"/></svg>